<?xml version="1.0" encoding="UTF-8"?>
<svg width="182px" height="58px" viewBox="0 0 182 58" version="1.1" xmlns="http://www.w3.org/2000/svg" xmlns:xlink="http://www.w3.org/1999/xlink">
    <!-- Generator: Sketch 51.1 (57501) - http://www.bohemiancoding.com/sketch -->
    <title>logo/horizontal/blue</title>
    <desc>Created with Sketch.</desc>
    <defs></defs>
    <g id="Symbols" stroke="none" stroke-width="1" fill="none" fill-rule="evenodd">
        <g id="desktop/header/solid" transform="translate(-135.000000, -11.000000)" fill="#3260FF">
            <g id="header">
                <g id="logo/horizontal/blue" transform="translate(135.000000, 10.000000)">
                    <path d="M82.6449339,39.1960263 C81.9928991,40.2697105 81.030673,41.1262895 79.759047,41.7657632 C78.4874209,42.4060263 76.9475426,42.7257632 75.1386209,42.7257632 C72.4117861,42.7257632 70.167647,42.0633947 68.4046209,40.7378684 C66.6400122,39.4131316 65.6785774,37.5618158 65.5179426,35.1847105 L71.7716209,35.1847105 C71.8626209,36.0997105 72.1894296,36.8189211 72.7504643,37.3447105 C73.3114991,37.8705 74.0268383,38.1326053 74.8980643,38.1326053 C75.65376,38.1326053 76.2488209,37.9273421 76.6848296,37.5160263 C77.1192557,37.1055 77.3368643,36.5560263 77.3368643,35.8707632 C77.3368643,35.2533947 77.135873,34.7394474 76.7362643,34.3281316 C76.335073,33.9168158 75.8365513,33.5805 75.2414904,33.3176053 C74.6456383,33.0547105 73.8210991,32.7405 72.767873,32.3741842 C71.2327426,31.8491842 69.9793165,31.3407632 69.0060122,30.8489211 C68.0319165,30.3586579 67.1962991,29.6268158 66.4983687,28.6549737 C65.7988557,27.6839211 65.4498904,26.4223421 65.4498904,24.8686579 C65.4498904,23.4286579 65.815473,22.1828684 66.5490122,21.1320789 C67.2825513,20.0812895 68.2954209,19.2760263 69.5892035,18.7155 C70.8837774,18.1557632 72.3666817,17.8762895 74.0387078,17.8762895 C76.7410122,17.8762895 78.8886122,18.5157632 80.4807165,19.7955 C82.0720296,21.0752368 82.9717426,22.8341842 83.178273,25.0739211 L76.8217252,25.0739211 C76.7061948,24.2741842 76.4149948,23.6402368 75.9457513,23.1712895 C75.4749252,22.7031316 74.8410904,22.4694474 74.0387078,22.4694474 C73.3518557,22.4694474 72.79636,22.6518158 72.3730122,23.0173421 C71.9480817,23.3836579 71.7368035,23.9197105 71.7368035,24.6278684 C71.7368035,25.1994474 71.9259252,25.6849737 72.3041687,26.0852368 C72.6816209,26.4847105 73.1571948,26.8107632 73.7293078,27.0618158 C74.3014209,27.3128684 75.12596,27.6333947 76.2029252,28.0218158 C77.7610035,28.5476053 79.0318383,29.0662895 80.0170122,29.5810263 C81.0013948,30.0949737 81.8488817,30.8433947 82.559473,31.8262895 C83.2684817,32.8091842 83.6237774,34.0889211 83.6237774,35.6655 C83.6237774,36.9452368 83.29776,38.1223421 82.6449339,39.1960263 Z M96.7377478,42.4880526 L91.0617217,34.4512105 L91.0617217,42.4880526 L85.2488,42.4880526 L85.2488,17.3946316 L91.0617217,17.3946316 L91.0617217,31.1622632 L96.7377478,23.5667368 L103.56987,23.5667368 L95.921913,33.0285789 L103.74,42.4880526 L96.7377478,42.4880526 Z M110.073204,23.5665 L114.627952,35.1638684 L118.875674,23.5665 L125.299483,23.5665 L113.471857,51.5083421 L107.082074,51.5083421 L111.534743,41.7765 L103.581343,23.5665 L110.073204,23.5665 Z M142.371083,32.5192105 C142.371083,32.9936842 142.3149,33.5147368 142.201743,34.0792105 L129.048683,34.0792105 C129.115152,35.5034211 129.47757,36.5257895 130.135935,37.1478947 C130.792717,37.7692105 131.630709,38.0802632 132.6507,38.0802632 C133.511639,38.0802632 134.225396,37.8663158 134.79197,37.4360526 C135.358543,37.0073684 135.73283,36.4531579 135.914039,35.7742105 L142.06643,35.7742105 C141.815587,37.1084211 141.272752,38.3005263 140.43397,39.3521053 C139.595978,40.4028947 138.530883,41.2294737 137.239474,41.8271053 C135.947274,42.4263158 134.508683,42.7255263 132.922909,42.7255263 C131.064135,42.7255263 129.415848,42.3355263 127.977257,41.5555263 C126.537874,40.7763158 125.411057,39.6513158 124.596013,38.1821053 C123.779387,36.7121053 123.372657,34.995 123.372657,33.0276316 C123.372657,31.0389474 123.773848,29.3139474 124.578604,27.8565789 C125.38257,26.3976316 126.510178,25.2789474 127.960639,24.4997368 C129.4111,23.7189474 131.064135,23.3297368 132.922909,23.3297368 C134.803839,23.3297368 136.457665,23.7134211 137.885178,24.4823684 C139.312691,25.2513158 140.418143,26.3297368 141.199161,27.7207895 C141.98097,29.1110526 142.371083,30.7105263 142.371083,32.5192105 Z M132.922909,27.9071053 C131.857022,27.9071053 130.973926,28.2244737 130.271248,28.8568421 C129.633457,29.4315789 129.260752,30.2613158 129.127813,31.3207895 L136.4727,31.3207895 C136.434717,30.2423684 136.117404,29.4055263 135.489109,28.8402632 C134.797509,28.2181579 133.9429,27.9071053 132.922909,27.9071053 Z M155.016047,37.5037105 L155.016047,42.4884474 L152.398412,42.4884474 C150.178012,42.4884474 148.449803,41.9413421 147.215369,40.8439737 C145.980143,39.7473947 145.362925,37.9331842 145.362925,35.4013421 L145.362925,28.4492368 L142.813343,28.4492368 L142.813343,23.5663421 L145.362925,23.5663421 L145.362925,18.9202895 L151.175056,18.9202895 L151.175056,23.5663421 L154.982021,23.5663421 L154.982021,28.4492368 L151.175056,28.4492368 L151.175056,35.5031842 C151.175056,36.2492368 151.327777,36.7695 151.634012,37.0631842 C151.939456,37.3568684 152.455386,37.5037105 153.180221,37.5037105 L155.016047,37.5037105 Z M174.732661,32.5192105 C174.732661,32.9936842 174.675687,33.5147368 174.56253,34.0792105 L161.40947,34.0792105 C161.47673,35.5034211 161.838357,36.5257895 162.496722,37.1478947 C163.153504,37.7692105 163.991496,38.0802632 165.011487,38.0802632 C165.872426,38.0802632 166.586183,37.8663158 167.152757,37.4360526 C167.71933,37.0073684 168.093617,36.4531579 168.274826,35.7742105 L174.427217,35.7742105 C174.177165,37.1084211 173.633539,38.3005263 172.794757,39.3521053 C171.956765,40.4028947 170.892461,41.2294737 169.601052,41.8271053 C168.308852,42.4263158 166.870261,42.7255263 165.283696,42.7255263 C163.425713,42.7255263 161.776635,42.3355263 160.338835,41.5555263 C158.899452,40.7763158 157.771843,39.6513158 156.9568,38.1821053 C156.140965,36.7121053 155.733443,34.995 155.733443,33.0276316 C155.733443,31.0389474 156.134635,29.3139474 156.939391,27.8565789 C157.743357,26.3976316 158.870965,25.2789474 160.321426,24.4997368 C161.771887,23.7189474 163.425713,23.3297368 165.283696,23.3297368 C167.164626,23.3297368 168.819243,23.7134211 170.245965,24.4823684 C171.67427,25.2513158 172.77893,26.3297368 173.559948,27.7207895 C174.341757,29.1110526 174.732661,30.7105263 174.732661,32.5192105 Z M165.283696,27.9071053 C164.217809,27.9071053 163.334713,28.2244737 162.632035,28.8568421 C161.995035,29.4315789 161.62233,30.2613158 161.489391,31.3207895 L168.834278,31.3207895 C168.795504,30.2423684 168.478191,29.4055263 167.849896,28.8402632 C167.158296,28.2181579 166.303687,27.9071053 165.283696,27.9071053 Z M175.925157,42.4876579 L175.925157,17.3942368 L181.738078,17.3942368 L181.738078,42.4876579 L175.925157,42.4876579 Z M29.8748252,48.1192105 L29.8748252,38.5713158 L32.5739643,47.7363158 L29.8748252,48.1192105 Z M27.2776061,48.1130526 L24.5800496,47.7293684 L27.2776061,38.5714737 L27.2776061,48.1130526 Z M29.8748252,58.5689211 L29.8748252,50.7365526 L33.3146252,50.2470789 L35.487547,57.6231316 C35.4289904,57.6318158 35.3704339,57.6381316 35.3126687,57.6547105 L33.5156165,58.1741842 C32.3254948,58.3810263 31.1108426,58.5136579 29.8748252,58.5689211 Z M27.2776061,50.7296842 L27.2776061,58.5691579 C26.0795713,58.5154737 24.9021104,58.3883684 23.7468061,58.1917895 L21.8872409,57.6549474 C21.8136496,57.6336316 21.7408496,57.6225789 21.6680496,57.6146842 L23.84018,50.241 L27.2776061,50.7296842 Z M28.5763739,1.57855263 C44.3589391,1.57855263 57.1527478,14.3427632 57.1527478,30.0896053 C57.1527478,42.5356579 49.1574087,53.1185526 38.011887,57.0059211 L31.168687,33.7756579 C32.3303217,32.9593421 33.0915565,31.6140789 33.0915565,30.0896053 C33.0915565,27.6003947 31.0705652,25.5840789 28.5763739,25.5840789 C26.0821826,25.5840789 24.0604,27.6003947 24.0604,30.0896053 C24.0604,31.6140789 24.8216348,32.9593421 25.9848522,33.7756579 L19.1408609,57.0059211 C7.99533913,53.1185526 7.10542736e-14,42.5356579 7.10542736e-14,30.0896053 C7.10542736e-14,14.3427632 12.7938087,1.57855263 28.5763739,1.57855263 Z M40.6548435,47.0182895 C46.1362087,43.1190789 49.4090435,36.7906579 49.4090435,30.0896053 C49.4090435,18.6296053 40.0629478,9.30434211 28.5763739,9.30434211 C17.0898,9.30434211 7.74370435,18.6296053 7.74370435,30.0896053 C7.74370435,36.7906579 11.0165391,43.1190789 16.4979043,47.0182895 C17.081887,47.4327632 17.8921826,47.2977632 18.3092,46.7151316 C18.7246348,46.1332895 18.5893217,45.3240789 18.0053391,44.9080263 C13.2060783,41.4943421 10.3407652,35.9538158 10.3407652,30.0896053 C10.3407652,20.0577632 18.5212696,11.8961842 28.5763739,11.8961842 C38.630687,11.8961842 46.8111913,20.0577632 46.8111913,30.0896053 C46.8111913,35.9538158 43.9466696,41.4943421 39.1474087,44.9080263 C38.5634261,45.3240789 38.428113,46.1332895 38.8443391,46.7151316 C39.0975565,47.0688158 39.4963739,47.2590789 39.902313,47.2590789 C40.1634435,47.2590789 40.4261565,47.1801316 40.6548435,47.0182895 Z M37.5094087,37.7680263 C37.918513,37.7680263 38.321287,37.5753947 38.573713,37.2161842 C40.0170522,35.1611842 40.7806609,32.7477632 40.7806609,30.2356579 C40.7806609,23.5211842 35.3056261,18.0596053 28.5763739,18.0596053 C21.8463304,18.0596053 16.372087,23.5211842 16.372087,30.2356579 C16.372087,32.7477632 17.1349043,35.1611842 18.5790348,37.2161842 C18.990513,37.8011842 19.8000174,37.9440789 20.3871652,37.5327632 C20.974313,37.1230263 21.1167478,36.3146053 20.7052696,35.7288158 C19.5697478,34.1119737 18.9691478,32.2125 18.9691478,30.2356579 C18.9691478,24.9501316 23.2785913,20.6506579 28.5763739,20.6506579 C33.8741565,20.6506579 38.1843913,24.9501316 38.1843913,30.2356579 C38.1843913,32.2125 37.5837913,34.1119737 36.4482696,35.7288158 C36.036,36.3146053 36.1784348,37.1230263 36.7655826,37.5327632 C36.9918957,37.6922368 37.2522348,37.7680263 37.5094087,37.7680263 Z" id="logo-h-blue"></path>
                </g>
            </g>
        </g>
    </g>
</svg>